<?xml version="1.0" standalone="no"?>
<!DOCTYPE svg PUBLIC "-//W3C//DTD SVG 20010904//EN"
 "http://www.w3.org/TR/2001/REC-SVG-20010904/DTD/svg10.dtd">
<svg version="1.0" xmlns="http://www.w3.org/2000/svg"
 width="1280.000000pt" height="1096.000000pt" viewBox="0 0 1280.000000 1096.000000"
 preserveAspectRatio="xMidYMid meet">

<g transform="translate(0.000000,1096.000000) scale(0.100000,-0.100000)"
fill="#000000" stroke="none">
<path d="M4891 9569 c-17 -17 -31 -35 -31 -40 0 -6 -15 -16 -33 -24 -47 -19
-65 -44 -78 -104 -14 -64 -6 -107 32 -182 45 -90 97 -131 198 -159 60 -16 200
-81 253 -118 123 -85 212 -196 268 -334 79 -199 75 -358 -11 -480 l-23 -31
243 6 c150 4 252 2 268 -4 20 -7 30 -6 45 8 18 16 19 29 15 173 -8 276 -35
563 -64 680 -55 224 -255 384 -555 444 -96 19 -239 36 -310 36 -31 0 -69 5
-84 10 -19 8 -30 8 -38 0 -20 -20 -26 -9 -26 44 0 58 -13 106 -29 106 -5 0
-23 -14 -40 -31z"/>
<path d="M7590 9499 c0 -41 -4 -79 -8 -85 -4 -6 -32 -17 -62 -24 -91 -21 -217
-76 -284 -124 -71 -50 -134 -118 -142 -153 -4 -13 -9 -23 -13 -23 -7 0 -29
-75 -30 -100 0 -26 -19 -154 -24 -170 -3 -8 -7 -100 -10 -205 -2 -104 -3 -179
0 -165 12 71 59 213 89 271 94 178 284 288 693 399 62 16 123 37 135 46 32 20
49 65 44 111 -4 33 0 44 39 88 23 27 43 53 43 57 0 16 -58 21 -195 16 -176 -7
-198 -4 -192 28 2 13 1 24 -2 24 -4 0 -13 16 -20 35 -7 19 -16 35 -21 35 -5 0
-15 3 -24 6 -14 5 -16 -4 -16 -67z"/>
<path d="M4990 9519 c0 -24 4 -38 10 -34 6 3 10 22 10 41 0 19 -4 34 -10 34
-5 0 -10 -18 -10 -41z"/>
<path d="M7010 8173 c0 -61 1 -63 25 -63 14 0 25 1 25 3 0 1 -11 29 -25 62
l-25 60 0 -62z"/>
<path d="M6677 7743 c-3 -197 -8 -367 -11 -378 -2 -11 -5 -44 -5 -73 -1 -35
-5 -51 -12 -47 -6 4 -8 13 -5 20 2 7 2 16 -2 20 -4 4 -8 57 -8 118 -3 227 -4
260 -10 255 -3 -4 -8 -145 -10 -315 -5 -308 -20 -669 -22 -561 -2 44 -6 58
-19 62 -15 5 -18 18 -18 84 0 73 -2 80 -27 104 -24 21 -28 34 -29 79 -1 36 -6
11 -15 -74 -8 -71 -20 -140 -28 -156 -8 -15 -16 -57 -18 -94 -3 -57 -6 -67
-21 -67 -10 0 -15 -5 -12 -10 4 -6 11 -8 16 -5 5 4 9 -6 9 -21 0 -22 -2 -25
-15 -14 -12 10 -15 9 -15 -7 0 -11 -11 -25 -24 -33 -33 -17 -56 5 -56 54 0 29
-4 36 -20 36 -19 0 -20 7 -21 98 -1 53 -3 106 -4 117 -1 11 -2 41 -3 68 -1 26
-6 47 -12 47 -5 0 -9 -93 -10 -236 0 -130 -3 -240 -6 -246 -3 -5 -12 -4 -20 3
-9 7 -29 9 -54 5 l-40 -6 0 135 c0 105 -3 141 -15 159 -11 16 -14 34 -9 57 8
37 7 142 -4 379 l-7 155 -25 4 c-33 4 -40 17 -40 77 0 87 0 87 -201 80 -96 -3
-212 -10 -259 -15 -47 -5 -114 -13 -150 -16 -36 -4 -74 -10 -85 -15 -31 -13
-277 -63 -304 -61 -13 0 -29 -5 -35 -12 -6 -7 -49 -28 -96 -46 -47 -18 -103
-42 -126 -52 -22 -10 -47 -19 -56 -19 -9 0 -19 -7 -22 -16 -3 -8 -10 -12 -16
-9 -5 3 -10 2 -10 -3 0 -5 -12 -15 -27 -23 -16 -7 -58 -33 -95 -56 -37 -24
-71 -43 -75 -43 -4 0 -21 -16 -38 -35 -16 -19 -34 -35 -38 -35 -5 0 -17 -10
-28 -22 -19 -23 -19 -23 -34 -4 -15 19 -15 19 -16 -5 -1 -13 -1 -27 -1 -30 1
-3 -42 -50 -93 -105 -52 -54 -95 -103 -95 -109 0 -5 -19 -35 -42 -65 -37 -49
-126 -212 -132 -243 -2 -7 -8 -25 -14 -40 -7 -15 -14 -42 -17 -60 -4 -17 -10
-36 -14 -42 -11 -13 -26 -76 -22 -93 1 -7 -9 -66 -23 -130 -14 -64 -30 -153
-36 -197 -6 -44 -15 -114 -21 -155 -16 -119 -29 -257 -34 -355 -4 -82 -3 -85
5 -30 52 343 103 569 163 718 77 191 240 415 395 543 160 132 338 230 542 297
391 129 589 94 658 -116 42 -129 44 -205 39 -1967 -5 -1797 -4 -1780 -55
-1923 -30 -84 -62 -134 -131 -204 -34 -34 -61 -64 -61 -66 0 -9 71 -13 76 -5
7 10 83 9 109 -2 16 -6 17 -9 5 -14 -92 -37 -500 -71 -559 -47 -35 15 -61 2
-92 -45 -10 -16 -32 -35 -50 -44 -57 -27 -74 -61 -74 -148 0 -73 2 -81 43
-147 23 -39 53 -77 65 -87 38 -27 122 -47 281 -67 143 -19 245 -28 571 -51 78
-6 345 -10 596 -10 492 0 821 16 1064 51 193 28 517 94 554 113 46 24 62 56
60 115 -2 43 1 53 22 70 14 10 34 36 44 56 19 35 19 37 3 49 -13 10 -18 27
-18 64 0 28 -5 54 -10 57 -6 4 -88 13 -183 21 -286 23 -403 48 -526 110 -71
36 -111 65 -163 116 -105 105 -142 198 -151 378 -3 61 -2 72 3 40 6 -33 7 -23
3 35 -2 44 -6 103 -7 130 -2 28 -4 79 -5 115 -2 43 -5 58 -10 45 -6 -15 -10
-6 -15 37 -8 64 1 138 15 116 5 -8 9 19 9 68 0 64 -3 83 -15 88 -10 4 -15 20
-15 51 0 33 4 45 15 45 8 0 15 7 15 15 0 8 -6 14 -12 12 -9 -1 -14 18 -16 67
-3 58 -1 68 13 63 10 -4 15 0 15 12 0 10 -7 21 -14 24 -13 5 -16 176 -19 1259
-2 689 -7 1265 -11 1279 -5 18 -15 27 -29 27 -12 0 -40 5 -62 10 -79 19 -75
12 -75 136 0 69 -6 129 -15 160 -8 27 -15 73 -15 103 0 29 -4 53 -10 53 -5 0
-10 -6 -10 -12 0 -10 -2 -10 -8 0 -5 7 -10 135 -11 284 -1 150 -5 276 -7 280
-3 4 -7 65 -11 135 -3 70 -7 129 -8 131 -1 1 -5 -159 -8 -355z m-17 -559 c0
-13 -4 -24 -10 -24 -5 0 -10 14 -10 31 0 17 4 28 10 24 6 -3 10 -17 10 -31z
m-280 -614 c0 -13 -11 -13 -30 0 -12 8 -11 10 8 10 12 0 22 -4 22 -10z m-813
-3805 c0 -16 -15 -19 -41 -9 -26 10 -18 24 12 24 19 0 29 -5 29 -15z"/>
<path d="M7623 8003 c-22 -4 -23 -6 -25 -211 l-3 -207 -50 1 c-27 0 -155 8
-283 17 -206 15 -236 15 -261 2 -28 -14 -29 -15 -15 -52 9 -28 14 -107 15
-288 0 -137 4 -277 8 -310 7 -59 7 -60 15 -23 10 47 64 109 118 138 53 28 203
38 305 21 170 -29 424 -120 569 -202 253 -145 475 -372 593 -606 161 -320 226
-685 286 -1603 47 -719 134 -1114 335 -1525 186 -379 449 -644 815 -821 323
-155 658 -217 930 -171 17 3 62 10 100 17 118 19 234 52 262 73 30 24 53 74
53 117 0 29 36 111 53 118 4 2 7 59 7 127 0 92 -3 123 -12 122 -58 -5 -215 37
-307 81 -99 48 -213 160 -257 252 -52 111 -98 292 -110 435 -2 28 -9 74 -14
103 -10 55 -16 246 -25 757 -3 165 -10 323 -15 350 -5 28 -10 97 -11 155 -1
113 -15 260 -18 200 -1 -27 -4 -31 -11 -20 -8 12 -10 9 -10 -12 0 -16 -4 -28
-10 -28 -6 0 -10 45 -10 115 0 108 -1 115 -20 115 -13 0 -20 7 -20 20 0 11 5
20 10 20 6 0 10 9 10 20 0 11 5 20 10 20 6 0 10 12 10 26 0 14 4 34 10 44 6
12 7 33 1 57 -5 21 -9 30 -10 21 -1 -11 -9 -18 -21 -18 -16 0 -20 7 -20 35 0
28 -4 35 -20 35 -18 0 -20 7 -20 56 0 36 -5 61 -15 70 -10 10 -15 11 -15 4 0
-8 -10 -10 -25 -8 -25 5 -25 4 -25 -58 l0 -64 -40 0 -40 0 0 -70 c0 -63 -2
-70 -20 -70 -16 0 -20 7 -20 30 0 18 -5 30 -13 30 -10 0 -13 31 -15 128 -2
161 -12 272 -23 272 -5 0 -10 -91 -11 -202 -1 -112 -3 -214 -4 -228 -1 -14 -2
-35 -3 -47 -1 -28 -31 -31 -31 -3 0 11 -4 20 -10 20 -5 0 -10 -4 -10 -10 0 -6
-33 -10 -80 -10 l-80 0 0 -35 0 -35 -120 0 c-73 0 -120 -4 -120 -10 0 -5 -18
-10 -40 -10 -36 0 -40 -2 -40 -25 0 -18 -5 -25 -20 -25 -19 0 -20 7 -20 90 0
53 -4 90 -10 90 -5 0 -10 8 -11 18 -1 11 -4 8 -9 -8 -6 -22 -8 -23 -15 -7 -4
11 1 37 14 69 11 28 21 59 21 69 0 9 9 38 19 62 20 47 22 130 4 148 -6 6 -103
11 -234 12 l-224 2 3 25 c1 13 -2 37 -8 54 -5 16 -17 77 -26 135 -31 213 -94
452 -153 580 -35 76 -97 191 -103 191 -5 0 -8 5 -8 12 0 12 -99 145 -155 207
-37 41 -198 186 -245 221 -18 14 -46 35 -61 48 -15 12 -30 22 -34 22 -3 0 -25
13 -48 28 -70 47 -148 87 -247 126 -52 21 -104 42 -115 46 -29 12 -98 35 -110
36 -5 0 -23 6 -38 12 -16 7 -35 12 -43 12 -23 0 -138 33 -151 43 -10 7 -13 59
-13 198 0 119 -4 189 -10 189 -5 0 -10 11 -10 24 0 32 -20 40 -77 29z m2039
-2650 c-3 -16 -7 -22 -10 -15 -4 13 4 42 11 42 2 0 2 -12 -1 -27z m-12 -57 c0
-3 -4 -8 -10 -11 -5 -3 -10 -1 -10 4 0 6 5 11 10 11 6 0 10 -2 10 -4z m-44
-159 c-3 -20 -27 -59 -33 -54 -8 9 18 78 27 72 4 -3 7 -11 6 -18z m751 -134
c-2 -21 -4 -4 -4 37 0 41 2 58 4 38 2 -21 2 -55 0 -75z m-637 15 c0 -16 -3
-19 -11 -11 -6 6 -8 16 -5 22 11 17 16 13 16 -11z"/>
<path d="M5000 7880 c0 -11 4 -20 9 -20 5 0 7 9 4 20 -3 11 -7 20 -9 20 -2 0
-4 -9 -4 -20z"/>
<path d="M6623 7765 c0 -44 2 -61 4 -37 2 23 2 59 0 80 -2 20 -4 1 -4 -43z"/>
<path d="M4322 7780 c0 -14 2 -19 5 -12 2 6 2 18 0 25 -3 6 -5 1 -5 -13z"/>
<path d="M5000 7650 c0 -108 2 -130 15 -130 22 0 28 42 20 142 -7 97 -12 118
-26 118 -5 0 -9 -58 -9 -130z"/>
<path d="M4182 7759 c2 -6 8 -9 13 -7 5 2 13 -13 17 -32 4 -19 12 -60 18 -90
19 -92 33 -86 26 10 -6 76 -10 87 -34 107 -29 24 -46 29 -40 12z"/>
<path d="M4334 7700 c5 -42 23 -257 26 -312 0 -5 3 -8 8 -8 14 0 -17 353 -33
368 -4 4 -5 -18 -1 -48z"/>
<path d="M4450 7720 c6 -11 12 -20 14 -20 2 0 2 9 -1 20 -3 11 -9 20 -15 20
-5 0 -4 -9 2 -20z"/>
<path d="M3833 7708 c-48 -19 -69 -38 -42 -38 5 0 7 -4 4 -10 -3 -6 1 -7 9 -4
9 3 16 11 16 16 0 15 32 37 53 38 9 0 17 5 17 10 0 6 -1 10 -2 9 -2 0 -27 -10
-55 -21z"/>
<path d="M3745 7672 c-6 -5 -50 -26 -100 -46 -325 -136 -688 -376 -934 -618
-357 -352 -546 -685 -677 -1195 -106 -414 -155 -818 -174 -1438 -30 -947 -38
-1067 -86 -1232 -53 -183 -151 -317 -313 -430 -30 -21 -63 -51 -72 -68 -25
-43 -53 -189 -45 -237 12 -71 83 -171 147 -204 54 -28 154 -44 272 -44 162 0
289 16 443 55 555 142 958 476 1204 998 50 106 135 344 163 457 60 237 81 356
112 630 l6 55 -23 -35 c-12 -19 -26 -36 -30 -38 -5 -2 -8 -13 -8 -25 0 -20 0
-20 14 -1 14 18 15 18 22 1 3 -10 2 -23 -5 -30 -6 -6 -11 -22 -11 -37 0 -14
-5 -32 -10 -40 -8 -12 -10 -9 -10 13 0 18 -4 26 -11 21 -13 -8 -3 163 11 181
4 6 13 69 19 140 6 72 15 175 20 230 5 55 12 183 16 285 4 102 9 188 11 191 2
3 6 64 9 135 3 71 9 154 15 184 8 48 13 106 34 378 5 51 1 57 -31 53 -14 -2
-14 -2 -15 184 -1 55 -3 81 -5 58 -4 -38 -7 -43 -29 -43 -22 0 -24 -4 -24 -41
0 -34 3 -40 16 -35 14 6 16 0 11 -36 -3 -23 -11 -44 -16 -46 -6 -2 -11 -29
-11 -60 0 -103 -22 -262 -37 -262 -10 0 -13 -34 -13 -160 0 -153 -1 -160 -20
-160 -19 0 -20 7 -20 161 l0 162 -30 -6 c-29 -6 -30 -6 -30 33 0 29 -5 43 -20
52 -12 8 -20 24 -20 41 0 23 -4 28 -16 23 -9 -3 -22 -6 -30 -6 -8 0 -14 -10
-14 -25 0 -14 -4 -25 -10 -25 -5 0 -10 9 -10 21 0 38 -21 45 -139 52 -114 7
-146 1 -164 -29 -4 -8 -15 -14 -22 -14 -8 0 -15 -9 -15 -20 0 -11 -6 -20 -14
-20 -21 0 -31 -126 -12 -145 8 -8 21 -15 29 -15 9 0 17 -5 19 -10 2 -7 81 -11
231 -10 l227 0 0 -30 c0 -16 5 -30 10 -30 6 0 10 -18 10 -40 0 -22 -4 -40 -10
-40 -5 0 -10 -9 -10 -21 0 -20 -4 -20 -162 -17 -90 2 -240 -1 -335 -6 l-172
-9 -16 -33 c-10 -22 -13 -46 -9 -72 4 -25 2 -42 -5 -46 -14 -9 -14 64 0 219
12 147 21 198 37 203 7 2 12 0 10 -5 -5 -16 12 -73 21 -73 11 0 31 63 31 98 0
25 -22 29 -40 7 -7 -9 -15 -14 -17 -11 -5 5 18 99 26 106 4 3 15 63 25 134 10
71 22 139 26 150 4 12 14 48 21 81 7 33 16 65 21 71 4 6 11 33 14 60 4 27 13
62 21 78 8 16 17 43 19 60 11 92 18 127 25 132 5 3 9 22 9 42 0 20 5 53 11 72
18 59 29 112 35 170 3 33 12 60 21 67 9 7 19 29 22 49 8 47 24 46 32 -3 6 -39
15 -31 21 17 2 17 10 26 25 28 12 2 22 11 23 20 0 9 3 48 6 85 3 38 3 80 0 93
-6 23 -10 24 -49 19 -23 -4 -45 -9 -49 -11 -5 -3 -8 1 -8 9 0 18 21 27 61 27
16 0 29 5 29 10 0 6 -7 10 -15 10 -8 0 -15 5 -15 11 0 14 79 87 101 94 9 3 20
12 23 20 3 8 12 15 20 15 9 0 20 9 26 20 19 35 40 24 40 -20 0 -22 7 -57 16
-78 8 -20 18 -55 21 -77 3 -22 10 -46 15 -53 7 -8 8 -61 4 -153 -5 -89 -4
-139 2 -135 5 3 10 16 10 28 0 34 21 83 31 72 7 -8 21 -56 36 -126 3 -16 9
-28 14 -28 13 0 31 49 31 87 0 20 7 44 15 53 18 20 35 104 35 179 0 80 19 104
21 26 1 -51 0 -490 -1 -565 -1 -73 32 -220 50 -220 10 0 25 196 22 277 -2 39
3 75 13 98 8 21 15 44 15 53 0 9 9 25 20 37 11 11 21 35 23 52 2 18 9 38 15
46 7 8 11 42 10 81 -2 69 -12 70 -24 1 -4 -22 -15 -56 -25 -75 -11 -19 -19
-47 -19 -62 0 -40 -18 -44 -25 -6 -7 37 0 329 10 426 4 35 3 68 -2 75 -6 7 -7
42 -4 79 5 52 12 72 29 88 12 11 22 25 22 30 0 12 -60 -10 -97 -37 -17 -13
-42 -23 -55 -23 -40 0 -78 -50 -94 -123 -8 -36 -24 -87 -34 -114 -18 -48 -18
-48 -24 -18 -18 87 -30 132 -40 147 -8 14 -5 23 19 48 16 16 33 30 38 30 4 0
24 12 43 26 24 19 32 22 28 10 -9 -23 9 -20 37 7 13 13 48 36 77 52 30 16 48
31 41 35 -7 5 -5 9 5 13 9 4 16 11 16 17 0 12 -12 13 -25 2z m-163 -494 c-2
-68 -8 -127 -12 -132 -12 -13 -30 36 -30 82 0 42 29 172 39 172 3 0 5 -55 3
-122z m-490 -40 c-17 -21 -33 -96 -36 -164 -2 -63 -9 -84 -23 -70 -10 9 -10
91 0 133 5 24 3 34 -9 41 -13 7 -8 15 26 46 38 34 67 44 42 14z m-105 -125 c6
-88 21 -145 36 -136 6 4 8 -2 5 -15 -4 -13 -1 -22 5 -22 8 0 9 -3 2 -8 -6 -4
-11 -29 -12 -57 -1 -84 -14 -208 -25 -240 -5 -16 -13 -52 -18 -80 -14 -82 -20
-107 -38 -165 -27 -91 -36 -93 -42 -10 -3 46 -10 75 -17 78 -8 2 -13 -5 -13
-18 0 -17 -5 -21 -26 -18 l-27 3 2 100 c1 55 7 118 12 140 6 22 14 59 18 83 8
40 17 60 25 51 2 -2 0 -31 -5 -64 -11 -87 -11 -195 1 -195 14 0 25 61 39 215
9 96 28 155 43 133 4 -7 8 -25 8 -40 0 -16 5 -28 10 -28 9 0 16 54 12 110 -4
84 -9 127 -15 137 -8 13 1 63 12 63 4 0 7 -8 8 -17z m-93 -120 c-3 -21 -10
-50 -16 -65 -9 -23 -13 -26 -29 -17 -22 11 -25 44 -6 56 6 4 18 20 26 36 20
38 31 34 25 -10z m-119 -152 c8 -25 -13 -289 -25 -311 -6 -10 -10 -30 -10 -44
0 -26 -14 -40 -40 -41 -33 0 -39 19 -30 111 5 57 4 93 -2 101 -7 9 4 41 38
108 27 52 52 95 56 95 3 0 9 -8 13 -19z m-188 -363 c-3 -8 -6 -5 -6 6 -1 11 2
17 5 13 3 -3 4 -12 1 -19z m228 -155 c-4 -31 -11 -66 -15 -77 -13 -31 -13 76
0 108 16 43 23 29 15 -31z m41 -89 c-4 -14 -9 -24 -12 -22 -9 10 -14 53 -7 73
6 20 6 19 16 -2 5 -12 6 -34 3 -49z m-329 34 c-3 -8 -6 -5 -6 6 -1 11 2 17 5
13 3 -3 4 -12 1 -19z m-20 -40 c-3 -8 -6 -5 -6 6 -1 11 2 17 5 13 3 -3 4 -12
1 -19z m274 -31 c-10 -9 -11 -8 -5 6 3 10 9 15 12 12 3 -3 0 -11 -7 -18z m58
-49 c1 -28 -2 -63 -8 -77 -5 -14 -12 -38 -15 -53 -4 -16 -11 -28 -16 -28 -15
0 -12 46 5 87 8 19 15 55 15 79 0 62 16 55 19 -8z m-224 -207 c4 -3 10 1 15 9
16 26 22 2 15 -61 -7 -59 -8 -61 -20 -38 l-13 24 -7 -30 c-4 -17 -15 -36 -23
-43 -21 -16 -25 -122 -5 -122 7 0 13 -6 13 -12 1 -7 7 -2 14 11 27 49 28 -16
1 -144 -6 -27 -10 -31 -41 -30 -22 1 -39 -4 -45 -14 -9 -13 -9 -12 -4 4 12 35
27 195 30 315 3 121 13 200 25 200 4 0 11 12 16 28 6 23 8 19 15 -32 5 -32 11
-62 14 -65z m132 -3 c-3 -8 -6 -5 -6 6 -1 11 2 17 5 13 3 -3 4 -12 1 -19z
m-314 -18 c3 -11 1 -23 -4 -26 -5 -3 -9 6 -9 20 0 31 6 34 13 6z m304 -37 c-3
-10 -5 -4 -5 12 0 17 2 24 5 18 2 -7 2 -21 0 -30z m69 -5 c-3 -13 -6 -39 -6
-58 0 -26 -3 -31 -10 -20 -11 19 -1 100 12 100 6 0 8 -10 4 -22z m-380 -115
c1 -41 5 -59 18 -69 15 -11 17 -22 11 -76 -10 -96 -22 -128 -50 -128 -32 0
-48 24 -41 62 3 18 10 62 16 98 6 36 15 67 20 68 6 2 7 8 4 13 -7 12 5 89 14
89 4 0 7 -25 8 -57z m349 -293 c-3 -86 -1 -150 4 -150 19 0 20 -34 3 -91 -9
-32 -19 -59 -22 -59 -3 0 -5 96 -5 213 1 188 5 237 20 237 2 0 2 -67 0 -150z
m-78 38 c-3 -7 -5 -2 -5 12 0 14 2 19 5 13 2 -7 2 -19 0 -25z m289 -165 c-6
-122 -13 -163 -26 -163 -14 0 -19 42 -19 163 l-1 117 26 0 27 0 -7 -117z
m-576 -7 c0 -24 -7 -59 -16 -77 l-15 -34 5 34 c4 18 6 53 6 77 0 24 5 44 10
44 6 0 10 -20 10 -44z m-697 -2443 c-7 -2 -21 -2 -30 0 -10 3 -4 5 12 5 17 0
24 -2 18 -5z m-63 -23 c-6 -11 -18 -20 -28 -20 -9 0 -23 9 -30 20 -11 19 -10
20 28 20 38 0 40 -2 30 -20z"/>
<path d="M2850 6390 c0 -16 2 -30 4 -30 2 0 6 14 8 30 3 17 1 30 -4 30 -4 0
-8 -13 -8 -30z"/>
<path d="M3907 7633 c-4 -3 -7 -38 -8 -77 0 -89 -13 -192 -33 -276 -17 -71
-20 -120 -8 -120 7 0 32 113 32 148 0 11 14 49 30 85 17 37 30 75 30 86 0 12
8 21 20 23 12 2 21 6 20 11 0 4 0 26 0 49 0 47 -16 42 -22 -6 -5 -49 -25 -42
-33 11 -7 53 -17 77 -28 66z"/>
<path d="M4011 7524 c0 -11 3 -14 6 -6 3 7 2 16 -1 19 -3 4 -6 -2 -5 -13z"/>
<path d="M4008 7435 c-4 -17 -3 -62 2 -100 5 -39 10 -99 11 -135 0 -46 3 -58
8 -40 5 14 4 81 -1 150 -10 151 -12 164 -20 125z"/>
<path d="M6732 7330 c0 -14 2 -19 5 -12 2 6 2 18 0 25 -3 6 -5 1 -5 -13z"/>
<path d="M4373 7270 c0 -30 2 -43 4 -27 2 15 2 39 0 55 -2 15 -4 2 -4 -28z"/>
<path d="M6250 7155 c0 -50 4 -85 10 -85 6 0 10 35 10 85 0 50 -4 85 -10 85
-6 0 -10 -35 -10 -85z"/>
<path d="M6492 7220 c0 -14 2 -19 5 -12 2 6 2 18 0 25 -3 6 -5 1 -5 -13z"/>
<path d="M3270 7021 c0 -25 6 -27 13 -6 4 8 2 17 -3 20 -6 4 -10 -3 -10 -14z"/>
<path d="M3340 6888 c0 -19 37 -95 51 -103 12 -8 -17 70 -36 98 -12 17 -15 18
-15 5z"/>
<path d="M3426 6700 c3 -19 10 -36 15 -38 5 -2 9 -12 9 -22 0 -10 5 -22 10
-25 20 -12 9 41 -15 80 l-26 40 7 -35z"/>
<path d="M3340 6400 c20 -13 60 -13 60 0 0 6 -17 10 -37 10 -28 0 -34 -3 -23
-10z"/>
<path d="M3114 6235 c-27 -27 -58 -32 -70 -13 -5 7 -10 4 -16 -12 -6 -17 -4
-26 9 -36 10 -7 13 -14 7 -14 -7 0 -15 -12 -20 -27 -9 -35 -9 -34 -19 -56 -4
-9 -3 -47 1 -83 l9 -66 90 -6 c126 -8 198 -4 214 12 8 9 15 50 18 120 3 58 10
106 14 106 18 0 8 39 -11 45 -11 3 -20 10 -20 14 0 15 -56 32 -119 36 -56 4
-65 2 -87 -20z"/>
<path d="M3732 6185 c1 -25 6 -45 10 -45 12 0 10 78 -2 85 -6 4 -9 -12 -8 -40z"/>
<path d="M10300 5965 c0 -8 5 -15 10 -15 6 0 10 7 10 15 0 8 -4 15 -10 15 -5
0 -10 -7 -10 -15z"/>
<path d="M10631 5534 c0 -11 3 -14 6 -6 3 7 2 16 -1 19 -3 4 -6 -2 -5 -13z"/>
<path d="M9840 5400 l0 -40 40 0 40 0 0 40 0 40 -40 0 -40 0 0 -40z"/>
<path d="M10080 5420 c0 -19 7 -20 90 -20 83 0 90 1 90 20 0 19 -7 20 -90 20
-83 0 -90 -1 -90 -20z"/>
<path d="M3752 5280 c0 -19 2 -27 5 -17 2 9 2 25 0 35 -3 9 -5 1 -5 -18z"/>
<path d="M3682 4454 c-11 -12 -10 -17 2 -30 15 -14 16 -12 16 15 0 35 0 36
-18 15z"/>
</g>
</svg>
